<svg xmlns="http://www.w3.org/2000/svg" width="16" height="16" viewBox="0 0 16 16">
  <defs>
    <style>
      .cls-1 {
        fill: #0c0c5b;
        fill-rule: evenodd;
      }
    </style>
  </defs>
  <path class="cls-1" d="M1355,50a1,1,0,1,0-1-1A1,1,0,0,0,1355,50Zm3,0a1,1,0,1,0-1-1A1,1,0,0,0,1358,50Zm3,0a1,1,0,1,0-1-1A1,1,0,0,0,1361,50Zm3-8h-12a2,2,0,0,0-2,2V56a2,2,0,0,0,1.06,1.763A1.978,1.978,0,0,0,1352,58a2.009,2.009,0,0,0,1.11-.336l2.5-1.664H1364a2,2,0,0,0,2-2V44A2,2,0,0,0,1364,42Zm0,12h-9l-3,2V44h12V54Z" transform="translate(-1350 -42)"/>
</svg>
