<svg xmlns="http://www.w3.org/2000/svg" width="14" height="16" viewBox="0 0 14 16">
  <defs>
    <style>
      .cls-1 {
        fill: #f8a200;
        fill-rule: evenodd;
      }
    </style>
  </defs>
  <path class="cls-1" d="M1415.31,44.127a5.618,5.618,0,0,1,3.13,5.069v3.67l1.33,1.366a0.828,0.828,0,0,1,.22.564l0.01,2.4a0.793,0.793,0,0,1-.78.8h-12.44a0.791,0.791,0,0,1-.78-0.8h0V54.8a0.838,0.838,0,0,1,.23-0.564l1.56-1.6a0.751,0.751,0,0,1,.55-0.235h6.22a0.8,0.8,0,0,1,0,1.6h-5.91l-1.1,1.132V56.4h10.89V55.131l-1.33-1.367a0.839,0.839,0,0,1-.23-0.565v-4a4.021,4.021,0,0,0-1.94-3.469,2.3,2.3,0,0,1-3.88,0,4.018,4.018,0,0,0-1.95,3.469V50a0.78,0.78,0,1,1-1.56,0V49.2a5.622,5.622,0,0,1,3.13-5.069A2.323,2.323,0,0,1,1415.31,44.127ZM1413,45.2a0.8,0.8,0,1,0-.78-0.8A0.791,0.791,0,0,0,1413,45.2Z" transform="translate(-1406 -42)"/>
</svg>
