<svg xmlns="http://www.w3.org/2000/svg" width="16.031" height="16.031" viewBox="0 0 16.031 16.031">
  <defs>
    <style>
      .cls-1 {
        fill: #b2b3be;
        fill-rule: evenodd;
      }
    </style>
  </defs>
  <path class="cls-1" d="M555.964,52.727l3.774,3.773a0.889,0.889,0,0,1-1.258,1.258l-4.687-4.687a0.443,0.443,0,0,1,.043-0.669c2.981-2.558,2.076-7.758-2.715-8.711a2.391,2.391,0,0,0-.923,0c-6.087,1.212-5.9,9.279.56,10.07a1.683,1.683,0,0,0,1.015-.283,0.89,0.89,0,1,1,.688,1.626h0c-4.9,1.372-10.057-3.105-8.026-9.245a3.118,3.118,0,0,1,.583-1.036c4.192-4.924,10.7-2.842,12.068,2.06a6.667,6.667,0,0,1-1.121,5.845h0Z" transform="translate(-543.969 -42)"/>
</svg>
