<svg xmlns="http://www.w3.org/2000/svg" width="14" height="14" viewBox="0 0 14 14">
  <path class="cls-1" d="M51.563,329.218a0.775,0.775,0,1,1-1.55,0v-4.659a0.775,0.775,0,1,1,1.55,0v4.659Zm3.875,0a0.775,0.775,0,1,1-1.55,0V322.23a0.775,0.775,0,1,1,1.55,0v6.988Zm3.875,0a0.775,0.775,0,1,1-1.55,0v-6.212a0.775,0.775,0,1,1,1.55,0v6.212Zm3.875,0a0.775,0.775,0,1,1-1.55,0v-8.541a0.775,0.775,0,1,1,1.55,0v8.541Zm-11.9-7.159a0.776,0.776,0,0,1-1.007-1.181,0.4,0.4,0,0,1,.038-0.03l3.875-3.106a0.773,0.773,0,0,1,.772-0.115l3.5,1.4,4.311-2.88a0.776,0.776,0,0,1,.86,1.292l-4.65,3.106a0.773,0.773,0,0,1-.718.075l-3.457-1.385-3.522,2.824h0Z" transform="translate(-50 -316)"/>
</svg>
