<svg xmlns="http://www.w3.org/2000/svg" width="14" height="16" viewBox="0 0 14 16">
  <path class="cls-1" d="M59.626,449.9a0.941,0.941,0,0,1,.867,0l3.059,1.6a0.766,0.766,0,0,1,.353,1.084,0.917,0.917,0,0,1-1.184.323l-0.036-.019-2.625-1.372-2.626,1.372a0.941,0.941,0,0,1-.867,0l-2.626-1.372-2.625,1.372a0.92,0.92,0,0,1-1.192-.3,0.751,0.751,0,0,1-.115-0.4V437.807a0.839,0.839,0,0,1,.874-0.8H63.118a0.839,0.839,0,0,1,.874.8V449a0.877,0.877,0,0,1-1.748,0V438.606H51.757v12.213l1.751-.915a0.941,0.941,0,0,1,.867,0L57,451.275Zm-5.247-8.1a0.8,0.8,0,1,1,0-1.6h5.244a0.8,0.8,0,1,1,0,1.6H54.379Zm0,3.2a0.8,0.8,0,1,1,0-1.6H57a0.8,0.8,0,1,1,0,1.6H54.379Z" transform="translate(-50 -437)"/>
</svg>
