<svg xmlns="http://www.w3.org/2000/svg" width="14" height="14" viewBox="0 0 14 14">
  <defs>
    <style>
      .cls-1 {
        fill: #fff;
        fill-rule: evenodd;
      }
    </style>
  </defs>
  <path class="cls-1" d="M499.778,396.111h-2.333a0.773,0.773,0,0,1-.432-0.131l-2.333-1.555a0.776,0.776,0,0,1-.347-0.647v-1.14l-1.987-1.324a0.778,0.778,0,0,1-.346-0.647v-3.111a0.778,0.778,0,0,1,.778-0.778h1.555a0.778,0.778,0,0,1,.778-0.778h7.778a0.778,0.778,0,0,1,.778.778h1.555a0.778,0.778,0,0,1,.778.778v3.111a0.778,0.778,0,0,1-.346.647l-1.987,1.324v1.14a0.778,0.778,0,0,1-.346.647l-1.988,1.324v0.659l1.126,0.563a0.779,0.779,0,0,1,.43.7v1.555a0.778,0.778,0,0,1-.778.778h-6.222a0.778,0.778,0,0,1-.778-0.778v-1.555a0.778,0.778,0,1,1,1.556,0v0.777h4.666v-0.3l-1.125-.563a0.776,0.776,0,0,1-.43-0.695v-0.778Zm2.333-8.555h-6.222v1.555a0.778,0.778,0,1,1-1.556,0v-0.778h-0.777v1.918l1.977,1.317a0.778,0.778,0,0,1,.356.654v1.14l1.791,1.194h2.64l1.791-1.194v-5.806Zm2.333,0.777h-0.777v2.436l0.777-.518v-1.918Z" transform="translate(-492 -386)"/>
</svg>
