<svg xmlns="http://www.w3.org/2000/svg" width="14.031" height="14" viewBox="0 0 14.031 14">
  <path class="cls-1" d="M57.919,627.642a2.808,2.808,0,0,1-3.722-2.361,2.779,2.779,0,0,1,1.266-2.632,2.8,2.8,0,0,1,3.621,4.214L60,628.153a3.7,3.7,0,0,1,1.6.165l0.742-1.235a2.47,2.47,0,0,1,0-4.165l-0.736-1.226a2.749,2.749,0,0,1-3.871-2.292H56.237a2.752,2.752,0,0,1-3.873,2.293l-0.736,1.225a2.47,2.47,0,0,1,0,4.165l0.736,1.225a2.749,2.749,0,0,1,3.871,2.292h2.156a0.7,0.7,0,1,1,0,1.4h-2.8a0.712,0.712,0,0,1-.7-0.725c-0.011-1.614-1.048-2.217-2.448-1.471a0.717,0.717,0,0,1-.957-0.244l-1.4-2.335a0.7,0.7,0,0,1,.241-0.96l0.026-.015c1.371-.742,1.351-1.769,0-2.5a0.7,0.7,0,0,1-.283-0.949c0-.009.01-0.018,0.015-0.026l1.4-2.335a0.717,0.717,0,0,1,.955-0.244c1.417,0.755,2.439.126,2.45-1.47a0.712,0.712,0,0,1,.7-0.726h2.8a0.712,0.712,0,0,1,.7.725c0.011,1.614,1.048,2.217,2.448,1.471a0.718,0.718,0,0,1,.957.244l1.4,2.335a0.7,0.7,0,0,1-.241.96l-0.026.015c-1.371.742-1.351,1.769,0,2.5a0.7,0.7,0,0,1,.283.949c0,0.009-.01.018-0.015,0.026l-1.4,2.335a0.718,0.718,0,0,1-.955.245,2.247,2.247,0,0,0-1.645-.2,0.689,0.689,0,0,1-.768-0.266ZM56.99,626.4a1.4,1.4,0,1,0-1.4-1.4A1.4,1.4,0,0,0,56.99,626.4Z" transform="translate(-49.969 -618)"/>
</svg>
