<svg xmlns="http://www.w3.org/2000/svg" width="13.969" height="16" viewBox="0 0 13.969 16">
  <path class="cls-1" d="M57.819,498.547a3.941,3.941,0,0,0-1.231,1.641,0.933,0.933,0,0,0-.033.229,0.875,0.875,0,0,1-1.743-.012,2.4,2.4,0,0,1,.082-0.591,5.262,5.262,0,0,1,1.7-2.406,12.72,12.72,0,0,1,1.648-1.25,0.921,0.921,0,0,1,1.21.215,0.744,0.744,0,0,1,.146.516c-0.132,1.4.6,2.776,2.318,4.195a6.07,6.07,0,0,1-1.085,9.846,7.48,7.48,0,0,1-7.69,0,6.071,6.071,0,0,1-1.086-9.847h0a0.929,0.929,0,0,1,1.233,0,0.8,0.8,0,0,1,.183.246,5.845,5.845,0,0,0,3.752,3.5,0.794,0.794,0,0,1,.627.971,0.882,0.882,0,0,1-1.061.575l-0.04-.011a7.037,7.037,0,0,1-4.242-3.242,4.565,4.565,0,0,0,1.77,6.575,5.6,5.6,0,0,0,6.407-.715,4.5,4.5,0,0,0,.032-6.743,7.556,7.556,0,0,1-2.731-3.845l-0.171.151h0Z" transform="translate(-50 -496)"/>
</svg>
