<svg xmlns="http://www.w3.org/2000/svg" width="14" height="16" viewBox="0 0 14 16">
  <path class="cls-1" d="M51.75,270.4a0.879,0.879,0,0,1-1.75,0v-8c0-3.535,3.134-6.4,7-6.4s7,2.865,7,6.4v8a0.879,0.879,0,0,1-1.75,0v-8a5.271,5.271,0,0,0-10.5,0v8Zm3.063-8a1.2,1.2,0,1,1,1.313-1.2A1.26,1.26,0,0,1,54.813,262.4Zm4.375,0a1.2,1.2,0,1,1,1.313-1.2,1.26,1.26,0,0,1-1.312,1.2h0Zm-5.3,3.066a0.76,0.76,0,0,1-.242-1.11,0.927,0.927,0,0,1,1.214-.222h0a3.769,3.769,0,0,0,4.279,0,0.927,0.927,0,0,1,1.214.222,0.76,0.76,0,0,1-.242,1.11A5.647,5.647,0,0,1,53.889,265.466ZM55.25,271.2a0.879,0.879,0,0,1-1.75,0v-1.6a0.879,0.879,0,0,1,1.75,0v1.6Zm2.625-.8a0.879,0.879,0,0,1-1.75,0v-1.6a0.879,0.879,0,0,1,1.75,0v1.6Zm3.5,0.8a0.879,0.879,0,0,1-1.75,0v-1.6a0.879,0.879,0,0,1,1.75,0v1.6Z" transform="translate(-50 -256)"/>
</svg>
