<svg xmlns="http://www.w3.org/2000/svg" width="14" height="14" viewBox="0 0 14 14">
  <path class="cls-1" d="M62.444,209.444V199.333a0.778,0.778,0,0,1,1.556,0v10.889a0.778,0.778,0,0,1-.778.778H50.778A0.778,0.778,0,0,1,50,210.222V199.333a0.778,0.778,0,0,1,1.556,0v10.111H62.444Zm-9.333-11.666a0.778,0.778,0,1,1,1.556,0v2.333a0.778,0.778,0,1,1-1.556,0v-2.333Zm3.111,0a0.778,0.778,0,1,1,1.556,0v2.333a0.778,0.778,0,1,1-1.556,0v-2.333Zm3.111,0a0.778,0.778,0,1,1,1.556,0v2.333a0.778,0.778,0,1,1-1.556,0v-2.333Zm-5.444,7a0.778,0.778,0,0,1,0-1.556h6.222a0.778,0.778,0,0,1,0,1.556H53.889Zm0,3.111a0.778,0.778,0,0,1,0-1.556h3.889a0.778,0.778,0,0,1,0,1.556H53.889Z" transform="translate(-50 -197)"/>
</svg>
