<svg xmlns="http://www.w3.org/2000/svg" width="14" height="14" viewBox="0 0 14 14">
  <defs>
    <style>
      .cls-1 {
        fill: #52c2d0;
        fill-rule: evenodd;
      }
    </style>
  </defs>
  <path class="cls-1" d="M1496.67,215.444v-1.556a0.771,0.771,0,0,1,.77-0.777,0.779,0.779,0,0,1,.78.777v2.333a0.779,0.779,0,0,1-.78.778h-3.11a0.771,0.771,0,0,1-.77-0.778v-3.888h-0.78a0.779,0.779,0,0,1-.78-0.778v-4.666a0.779,0.779,0,0,1,.78-0.778h6.79l5.27-3.008a0.779,0.779,0,0,1,1.06.29,0.854,0.854,0,0,1,.1.385v10.888a0.778,0.778,0,0,1-.78.777,0.751,0.751,0,0,1-.38-0.1l-5.27-3.008h-2.13a0.771,0.771,0,0,1-.77-0.778v-2.333a0.771,0.771,0,0,1,.77-0.778,0.78,0.78,0,0,1,.78.778v1.555h1.56a0.752,0.752,0,0,1,.38.1l4.28,2.446v-8.208l-4.28,2.446a0.752,0.752,0,0,1-.38.1h-6.22v3.11h0.77a0.78,0.78,0,0,1,.78.778v3.889h1.56Z" transform="translate(-1492 -203)"/>
</svg>
