<svg xmlns="http://www.w3.org/2000/svg" width="14" height="12.031" viewBox="0 0 14 12.031">
  <path class="cls-1" d="M58.775,569.912L54.9,567.837l-3.887,2.082a0.679,0.679,0,0,1-.939-0.336A0.793,0.793,0,0,1,50,569.249V561a0.758,0.758,0,0,1,.387-0.671l4.187-2.244a0.657,0.657,0,0,1,.651,0l3.875,2.076,3.887-2.082a0.678,0.678,0,0,1,.939.335,0.8,0.8,0,0,1,.074.335V567a0.759,0.759,0,0,1-.387.672l-4.187,2.243A0.652,0.652,0,0,1,58.775,569.912ZM58.4,568.035v-4.788a0.7,0.7,0,1,1,1.4,0v4.788l2.8-1.5V559.96l-3.187,1.707a0.656,0.656,0,0,1-.626,0L55.6,559.96v4.788a0.7,0.7,0,1,1-1.4,0V559.96l-2.8,1.5v6.575l3.187-1.708a0.661,0.661,0,0,1,.626,0Z" transform="translate(-50 -557.969)"/>
</svg>
