<svg xmlns="http://www.w3.org/2000/svg" width="14" height="11.969" viewBox="0 0 14 11.969">
  <defs>
    <style>
      .cls-1 {
        fill: #5b72ec;
        fill-rule: evenodd;
      }
    </style>
  </defs>
  <path class="cls-1" d="M654.519,212.981a2.07,2.07,0,0,1,2.68-1.369,2.179,2.179,0,0,1,1.282,1.369H658.6V210.3l-1.69-1.8H655.1v1.5a0.7,0.7,0,1,1-1.4,0v-2.242a0.725,0.725,0,0,1,.7-0.748h2.8a0.678,0.678,0,0,1,.5.219l2.1,2.243a0.774,0.774,0,0,1,.205.528v3.738a0.724,0.724,0,0,1-.7.747h-0.819a2.069,2.069,0,0,1-2.68,1.37,2.181,2.181,0,0,1-1.282-1.37h-3.038a2.069,2.069,0,0,1-2.68,1.37,2.178,2.178,0,0,1-1.282-1.37H646.7a0.724,0.724,0,0,1-.7-0.747v-8.97a0.725,0.725,0,0,1,.7-0.748h7.7a0.749,0.749,0,0,1,0,1.5h-7v7.475h0.119a2.07,2.07,0,0,1,2.68-1.369,2.179,2.179,0,0,1,1.282,1.369h3.038Zm-5.019,1.5a0.749,0.749,0,1,0-.7-0.747A0.724,0.724,0,0,0,649.5,214.476Zm7,0a0.749,0.749,0,1,0-.7-0.747A0.724,0.724,0,0,0,656.5,214.476Z" transform="translate(-646 -204)"/>
</svg>
