<svg xmlns="http://www.w3.org/2000/svg" width="18" height="17.875" viewBox="0 0 18 17.875">
  <defs>
    <style>
      .cls-1 {
        fill: #fff;
        fill-rule: evenodd;
        opacity: 0.5;
      }
    </style>
  </defs>
  <path class="cls-1" d="M755,950.977v-1.986a1,1,0,0,1,2,0v2.979a1,1,0,0,1-1,.993h-4a1,1,0,0,1-1-.993v-4.965h-1a1,1,0,0,1-1-.993v-5.957a1,1,0,0,1,1-.993h8.734l6.77-3.841a1,1,0,0,1,1.364.37,0.978,0.978,0,0,1,.132.492v13.9a1,1,0,0,1-1.5.862l-6.77-3.841H756a1,1,0,0,1-1-.993v-2.978a1,1,0,0,1,2,0v1.985h2a1.014,1.014,0,0,1,.5.132l5.5,3.122V937.794l-5.5,3.123a1.013,1.013,0,0,1-.5.131h-8v3.971h1a1,1,0,0,1,1,.993v4.965h2Z" transform="translate(-749 -935.094)"/>
</svg>
