<svg xmlns="http://www.w3.org/2000/svg" width="14" height="18" viewBox="0 0 14 18">
  <defs>
    <style>
      .cls-1 {
        fill: #a2a3b1;
        fill-rule: evenodd;
      }
    </style>
  </defs>
  <path class="cls-1" d="M389.125,437.053V435.1a0.888,0.888,0,0,1,.875-0.9h6.125a0.888,0.888,0,0,1,.875.9v9a0.888,0.888,0,0,1-.875.9h-12.25a0.888,0.888,0,0,1-.875-0.9v-9a0.888,0.888,0,0,1,.875-0.9h1.75v-2.7a4.377,4.377,0,1,1,8.75,0,0.875,0.875,0,1,1-1.75,0,2.626,2.626,0,1,0-5.25,0v3.6a0.888,0.888,0,0,1-.875.9h-1.75v7.2h10.5V436h-4.375v1.053a2.722,2.722,0,0,1,1.6,3.447,2.608,2.608,0,0,1-3.351,1.646,2.722,2.722,0,0,1-1.6-3.446A2.666,2.666,0,0,1,389.125,437.053ZM390,440.5a0.9,0.9,0,1,0-.875-0.9A0.888,0.888,0,0,0,390,440.5Z" transform="translate(-383 -427)"/>
</svg>
