<svg xmlns="http://www.w3.org/2000/svg" width="14.031" height="18" viewBox="0 0 14.031 18">
  <path class="cls-1" d="M61.365,140.5l-4.794-2.816a0.911,0.911,0,0,1-.354-1.218A0.862,0.862,0,0,1,57.4,136.1a0.308,0.308,0,0,1,.036.021l6.124,3.6a0.911,0.911,0,0,1,.325,1.226,0.884,0.884,0,0,1-.325.334l-6.124,3.6a0.854,0.854,0,0,1-.868,0l-6.124-3.6a0.911,0.911,0,0,1-.325-1.226,0.877,0.877,0,0,1,.325-0.334l3.381-1.986a0.862,0.862,0,0,1,1.2.318,0.913,0.913,0,0,1-.31,1.231l-0.021.012-2.051,1.2,4.36,2.56Zm1.33,3.715a0.861,0.861,0,0,1,1.2.305,0.913,0.913,0,0,1-.3,1.234,0.3,0.3,0,0,1-.036.021l-6.124,3.6a0.854,0.854,0,0,1-.868,0l-6.124-3.6a0.911,0.911,0,0,1-.354-1.218,0.863,0.863,0,0,1,1.186-.363,0.3,0.3,0,0,1,.036.021l5.69,3.34Zm0,4.5a0.861,0.861,0,0,1,1.2.305,0.913,0.913,0,0,1-.3,1.234,0.3,0.3,0,0,1-.036.021l-6.124,3.6a0.854,0.854,0,0,1-.868,0l-6.124-3.6a0.911,0.911,0,0,1-.354-1.218,0.863,0.863,0,0,1,1.186-.363,0.3,0.3,0,0,1,.036.021l5.69,3.34Z" transform="translate(-50 -136)"/>
</svg>
