<svg xmlns="http://www.w3.org/2000/svg" width="14" height="16" viewBox="0 0 14 16">
  <defs>
    <style>
      .cls-1 {
        fill: #0c0c5b;
        fill-rule: evenodd;
      }
    </style>
  </defs>
  <path class="cls-1" d="M148.776,1156.37a0.778,0.778,0,1,1-1.555,0v-5.58a0.778,0.778,0,1,1,1.555,0v5.58Zm1.86-2.39a0.807,0.807,0,0,1-.281-1.09,0.765,0.765,0,0,1,1.035-.3,7.262,7.262,0,0,1,2.632,9.92,6.986,6.986,0,0,1-9.237,2.72,7.257,7.257,0,0,1-2.905-9.84,7.059,7.059,0,0,1,2.73-2.8,0.769,0.769,0,0,1,1.047.34,0.807,0.807,0,0,1-.293,1.05,5.651,5.651,0,0,0-2.087,7.65,5.441,5.441,0,0,0,7.291,2.14,5.64,5.64,0,0,0,2.193-7.61,5.509,5.509,0,0,0-2.125-2.18h0Z" transform="translate(-141 -1150)"/>
</svg>
