<svg xmlns="http://www.w3.org/2000/svg" width="8" height="14" viewBox="0 0 8 14">
  <defs>
    <style>
      .cls-1 {
        fill: #f8a200;
        fill-rule: evenodd;
      }
    </style>
  </defs>
  <path class="cls-1" d="M933.853,211.356l-2.433-1.01a0.711,0.711,0,0,1-.385-0.883l1.193-3.566a0.659,0.659,0,0,1,.85-0.429,0.709,0.709,0,0,1,.408.893l-0.98,2.931,2.436,1.012a0.711,0.711,0,0,1,.382.886l-0.608,1.792,2.5-3.067-2.162-.9a0.713,0.713,0,0,1-.375-0.909,0.72,0.72,0,0,1,.039-0.085l1.93-3.612h-2.985a0.7,0.7,0,0,1,0-1.4h4.123a0.684,0.684,0,0,1,.667.7,0.723,0.723,0,0,1-.086.342l-2.112,3.956,2.322,0.966a0.72,0.72,0,0,1,.261,1.106l-5.456,6.685a0.673,0.673,0,0,1-1.135-.691l1.6-4.718h0Z" transform="translate(-931 -203)"/>
</svg>
