<svg xmlns="http://www.w3.org/2000/svg" width="14" height="14" viewBox="0 0 14 14">
  <path class="cls-1" d="M62.444,378.556H53.889a0.778,0.778,0,0,1,0-1.556h9.333a0.778,0.778,0,0,1,.778.778v12.444a0.778,0.778,0,0,1-.778.778H50.778A0.778,0.778,0,0,1,50,390.222V377.778a0.778,0.778,0,1,1,1.556,0v11.666H62.444V378.556Zm-8.556,3.888a0.778,0.778,0,1,1,0-1.555h6.222a0.778,0.778,0,1,1,0,1.555H53.889Zm0,2.334a0.778,0.778,0,0,1,0-1.556h6.222a0.778,0.778,0,0,1,0,1.556H53.889Zm0,2.333a0.778,0.778,0,1,1,0-1.555h3.889a0.778,0.778,0,1,1,0,1.555H53.889Z" transform="translate(-50 -377)"/>
</svg>
