<svg xmlns="http://www.w3.org/2000/svg" width="14" height="14" viewBox="0 0 14 14">
  <defs>
    <style>
      .cls-1 {
        fill: #f52a65;
        fill-rule: evenodd;
      }
    </style>
  </defs>
  <path class="cls-1" d="M1212.97,212.98l0.49-.97-1.9-7.619h-0.86a0.7,0.7,0,0,1,0-1.4h1.4a0.7,0.7,0,0,1,.68.53l0.74,2.97h9.78a0.7,0.7,0,0,1,.7.7,0.633,0.633,0,0,1-.01.137l-0.7,3.5a0.72,0.72,0,0,1-.52.542l-5.6,1.4a0.7,0.7,0,0,1-.34-1.358l5.17-1.293,0.45-2.228h-8.58l1.01,4.03a0.73,0.73,0,0,1-.05.483l-0.7,1.4a1.027,1.027,0,0,1-.13.182,2.1,2.1,0,1,1-2.8-.99,2.084,2.084,0,0,1,1.77-.015h0Zm-0.87,2.611a0.7,0.7,0,1,0-.7-0.7A0.7,0.7,0,0,0,1212.1,215.591Zm9.8,1.4a2.1,2.1,0,1,1,2.1-2.1A2.1,2.1,0,0,1,1221.9,216.991Zm0-1.4a0.7,0.7,0,1,0-.7-0.7A0.7,0.7,0,0,0,1221.9,215.591Z" transform="translate(-1210 -203)"/>
</svg>
